<?xml version="1.0" encoding="utf-8"?>
<!-- Generator: Adobe Illustrator 22.0.1, SVG Export Plug-In . SVG Version: 6.00 Build 0)  -->
<svg version="1.1" id="Capa_1" xmlns="http://www.w3.org/2000/svg" xmlns:xlink="http://www.w3.org/1999/xlink" x="0px" y="0px"
	 viewBox="0 0 437.6 436.1" style="enable-background:new 0 0 437.6 436.1;" xml:space="preserve">
<style type="text/css">
	.st0{fill:#FFFFFF;}
</style>
<path class="st0" d="M218.8,0C98,0,0,98,0,218.8s98,218.8,218.8,218.8s218.8-98,218.8-218.8S339.6,0,218.8,0z M218.8,408.8
	c-104.8,0-190-85.2-190-190s85.2-190,190-190s190,85.2,190,190S323.6,408.8,218.8,408.8z"/>
<g>
	<path class="st0" d="M187.5,319.8h-25c-5.1,0-9.2-4.1-9.2-9.2v-185c0-5.1,4.1-9.2,9.2-9.2h25c5.1,0,9.2,4.1,9.2,9.2v185
		C196.7,315.6,192.6,319.8,187.5,319.8z"/>
	<path class="st0" d="M284.8,319.8h-25c-5.1,0-9.2-4.1-9.2-9.2v-185c0-5.1,4.1-9.2,9.2-9.2h25c5.1,0,9.2,4.1,9.2,9.2v185
		C294,315.6,289.9,319.8,284.8,319.8z"/>
</g>
</svg>
