<?xml version="1.0" encoding="utf-8"?>
<!-- Generator: Adobe Illustrator 22.0.1, SVG Export Plug-In . SVG Version: 6.00 Build 0)  -->
<svg version="1.1" id="Capa_1" xmlns="http://www.w3.org/2000/svg" xmlns:xlink="http://www.w3.org/1999/xlink" x="0px" y="0px"
	 viewBox="0 0 437.6 436.1" style="enable-background:new 0 0 437.6 436.1;" xml:space="preserve">
<style type="text/css">
	.st0{fill:#FFFFFF;}
</style>
<path class="st0" d="M218.8,0C98,0,0,98,0,218.8s98,218.8,218.8,218.8s218.8-98,218.8-218.8S339.6,0,218.8,0z M218.8,408.8
	c-104.8,0-190-85.2-190-190s85.2-190,190-190s190,85.2,190,190S323.6,408.8,218.8,408.8z"/>
<path class="st0" d="M303.9,207.6l-124.2-72.5c-11.3-6.6-20.5-1.3-20.4,11.8l0.6,143.8c0.1,13.1,9.3,18.4,20.7,11.9l123.3-71.2
	C315.2,224.8,315.2,214.2,303.9,207.6z"/>
</svg>
